PathFileType	4	(X/Y/Z)	/Users/visionmauri/1_7_1_f_Sports2D/1_7_1_f_Sports2D_px_person00.trc
DataRate	CameraRate	NumFrames	NumMarkers	Units	OrigDataRate	OrigDataStartFrame	OrigNumFrames
30.0	30.0	4	22	m	30.0	48	389
Frame#	Time	Hip			RHip			RKnee			RAnkle			RBigToe			RSmallToe			RHeel			LHip			LKnee			LAnkle			LBigToe			LSmallToe			LHeel			Neck			Head			Nose			RShoulder			RElbow			RWrist			LShoulder			LElbow			LWrist			
		X1	Y1	Z1	X2	Y2	Z2	X3	Y3	Z3	X4	Y4	Z4	X5	Y5	Z5	X6	Y6	Z6	X7	Y7	Z7	X8	Y8	Z8	X9	Y9	Z9	X10	Y10	Z10	X11	Y11	Z11	X12	Y12	Z12	X13	Y13	Z13	X14	Y14	Z14	X15	Y15	Z15	X16	Y16	Z16	X17	Y17	Z17	X18	Y18	Z18	X19	Y19	Z19	X20	Y20	Z20	X21	Y21	Z21	X22	Y22	Z22
48	1.6041237113402063	652.6134884756741	905.0035376897612	0.0	727.1767815061179	929.9232237621726	0.0	677.9941199970281	1268.3863452485339	0.0	643.3292963252392	1582.0688039512052	0.0	595.917275705471	1627.3164732792095	0.0	642.9319735150326	1637.3831110136286	0.0	643.8158811810252	1622.2435327995995	0.0	575.9735415481226	917.8008968261189	0.0	534.7744629214919	1159.7808163895888	0.0	539.7896598573358	1168.2721520168373	0.0	527.2441410181368	1111.9722984623322	0.0	511.7782393128821	1149.8097910292013	0.0	547.9871634121379	1173.9749298068743	0.0	609.1745662515914	538.754721795053	0.0	502.6842137170054	440.9305447205516	0.0	527.3281539260655	532.3108182652758	0.0	748.4516627177029	575.1374361749273	0.0	844.7783569657347	763.4762623083033	0.0	833.8021784757069	926.7591564386162	0.0	530.20162571165	531.683165975252	0.0	508.7802452936505	713.6125501346056	0.0	500.2413328303798	753.4360004579713	0.0
49	1.6375429553264604	651.4833697871485	907.1209865898396	0.0	724.752610547232	932.6217131067903	0.0	678.702426672228	1265.8143742716115	0.0	643.4689111985629	1582.0562629284843	0.0	603.2591711752707	1619.3828390935664	0.0	646.012361187296	1633.441980896631	0.0	644.772132551138	1623.5482030915757	0.0	575.4166246482056	919.0091641237447	0.0	535.3624832692799	1157.7857223949632	0.0	542.0266594056245	1161.1777759534762	0.0	529.4629742470663	1098.9566938133848	0.0	517.0188682636942	1147.141619026465	0.0	548.8359068909745	1165.266561203797	0.0	613.3930740846321	535.8437222219997	0.0	510.95275832167613	440.43908926185634	0.0	532.2099769358402	530.9474765255715	0.0	751.210254680358	573.7054081602024	0.0	845.1155220592358	763.0188632323931	0.0	833.7983891712721	921.291310214357	0.0	531.595464400147	532.9044202171701	0.0	502.4138204289492	711.0489421100401	0.0	495.8824912897416	754.6691322813683	0.0
50	1.6709621993127148	650.0719807121217	908.5159704934963	0.0	721.0334775161746	935.0881698594159	0.0	678.9311624775697	1265.0852818878207	0.0	643.2507710577839	1580.3632739499271	0.0	608.6238022083346	1614.3562249895285	0.0	647.9652671127211	1631.9584540962426	0.0	644.3248657144875	1622.2911452565506	0.0	573.7960694343489	920.053177532422	0.0	534.8825080207257	1156.6912985132294	0.0	545.0714458503325	1157.3334674091902	0.0	533.5544212374933	1091.3886271952679	0.0	522.7715071134648	1138.386076727119	0.0	551.2911773501058	1160.4285529416886	0.0	617.1808175794317	533.2610845468189	0.0	521.1850927572222	440.7294735368284	0.0	536.3073238909328	528.2970875301737	0.0	754.589906355358	573.0813919100137	0.0	846.4451877215841	761.6828390252418	0.0	833.1222969414807	917.9038747345953	0.0	531.8259343044006	533.6990439620513	0.0	498.86789368259156	704.4463283615921	0.0	490.73878787136323	756.5641577425523	0.0
51	1.704381443298969	648.1206087005224	907.822851019941	0.0	718.8740961121114	933.5876848688583	0.0	678.1284644609457	1266.0955346580338	0.0	643.0057801857516	1578.6706335125161	0.0	612.5716418679931	1613.296592367141	0.0	653.6098491148532	1632.457000964556	0.0	642.9479443240474	1621.6031689028282	0.0	570.3641163275834	918.8355401706077	0.0	534.0005245462908	1155.8408398142942	0.0	547.6066553896569	1154.382170674147	0.0	533.7143496730067	1108.4828607851662	0.0	523.0197026027113	1133.7065672520923	0.0	554.2783488422898	1155.3063445309695	0.0	619.3791853657193	533.3810412043473	0.0	531.74850102596	440.1221998642047	0.0	540.9385844959506	523.5242038954466	0.0	757.4038975696229	572.8284732017501	0.0	847.5075183617366	760.4261503707011	0.0	831.8467560792155	917.1245587339978	0.0	528.8636976975183	535.5386356152396	0.0	495.65728202727666	705.5116770457873	0.0	485.2321328221544	757.8816791263672	0.0
